<svg width="50" height="50" viewBox="0 0 50 50" fill="none" xmlns="http://www.w3.org/2000/svg">
<circle cx="25" cy="25" r="25" fill="#F9F4EE"/>
<path d="M24.34 22.89C27.3 22.89 29.48 23.48 30.88 24.66C32.3 25.84 33.01 27.42 33.01 29.4C33.01 30.68 32.69 31.85 32.05 32.91C31.41 33.95 30.43 34.79 29.11 35.43C27.81 36.05 26.2 36.36 24.28 36.36C22.8 36.36 21.34 36.17 19.9 35.79C18.48 35.39 17.27 34.83 16.27 34.11L18.19 30.39C18.99 30.99 19.91 31.46 20.95 31.8C21.99 32.12 23.06 32.28 24.16 32.28C25.38 32.28 26.34 32.04 27.04 31.56C27.74 31.08 28.09 30.41 28.09 29.55C28.09 28.65 27.72 27.97 26.98 27.51C26.26 27.05 25 26.82 23.2 26.82H17.83L18.91 15H31.72V18.9H22.96L22.63 22.89H24.34Z" fill="#E97522"/>
</svg>
