<svg width="50" height="50" viewBox="0 0 50 50" fill="none" xmlns="http://www.w3.org/2000/svg">
<circle cx="25" cy="25" r="25" fill="#F9F4EE"/>
<path d="M32.9032 32.04V36H17.0332V32.85L25.1332 25.2C25.9932 24.38 26.5732 23.68 26.8732 23.1C27.1732 22.5 27.3232 21.91 27.3232 21.33C27.3232 20.49 27.0332 19.85 26.4532 19.41C25.8932 18.95 25.0632 18.72 23.9632 18.72C23.0432 18.72 22.2132 18.9 21.4732 19.26C20.7332 19.6 20.1132 20.12 19.6132 20.82L16.0732 18.54C16.8932 17.32 18.0232 16.37 19.4632 15.69C20.9032 14.99 22.5532 14.64 24.4132 14.64C25.9732 14.64 27.3332 14.9 28.4932 15.42C29.6732 15.92 30.5832 16.64 31.2232 17.58C31.8832 18.5 32.2132 19.59 32.2132 20.85C32.2132 21.99 31.9732 23.06 31.4932 24.06C31.0132 25.06 30.0832 26.2 28.7032 27.48L23.8732 32.04H32.9032Z" fill="#E97522"/>
</svg>
