<svg width="50" height="50" viewBox="0 0 50 50" fill="none" xmlns="http://www.w3.org/2000/svg">
<circle cx="25" cy="25" r="25" fill="#F9F4EE"/>
<path d="M26.9939 23.55C28.8339 23.85 30.2439 24.54 31.2239 25.62C32.2039 26.68 32.6939 28 32.6939 29.58C32.6939 30.8 32.3739 31.93 31.7339 32.97C31.0939 33.99 30.1139 34.81 28.7939 35.43C27.4939 36.05 25.8939 36.36 23.9939 36.36C22.5139 36.36 21.0539 36.17 19.6139 35.79C18.1939 35.39 16.9839 34.83 15.9839 34.11L17.8739 30.39C18.6739 30.99 19.5939 31.46 20.6339 31.8C21.6939 32.12 22.7739 32.28 23.8739 32.28C25.0939 32.28 26.0539 32.05 26.7539 31.59C27.4539 31.11 27.8039 30.44 27.8039 29.58C27.8039 27.86 26.4939 27 23.8739 27H21.6539V23.79L25.9739 18.9H17.0339V15H31.7339V18.15L26.9939 23.55Z" fill="#E97522"/>
</svg>
