<svg width="88" height="104" viewBox="0 0 88 104" fill="none" xmlns="http://www.w3.org/2000/svg">
<g style="mix-blend-mode:multiply" clip-path="url(#clip0_42_429)">
<path d="M33.4301 20.3771C33.0579 22.1927 32.1529 23.592 30.7151 24.5749C29.2786 25.5577 27.6788 25.8685 25.9155 25.5074L20.7185 24.442L22.4996 15.7543L25.8541 16.442L24.7219 21.9646L26.5644 22.3424C27.4524 22.5244 28.2366 22.3767 28.917 21.8993C29.5979 21.4241 30.0379 20.6985 30.2372 19.7225C30.4373 18.7466 30.3184 17.9055 29.8806 17.1993C29.4431 16.4935 28.7802 16.0496 27.8918 15.8674L20.8523 14.4242C19.8637 14.2368 18.9349 13.8134 18.1444 13.1899C18.0935 13.1498 18.0431 13.1072 17.994 13.0649C17.532 12.6646 17.1319 12.1977 16.8065 11.6796C15.9184 10.2961 15.5991 8.62104 15.9156 7.00538L16.0172 6.50933C16.4173 4.80888 17.3042 3.48966 18.6779 2.55166C20.1144 1.56894 21.7142 1.2581 23.4775 1.61914L28.6745 2.6846L26.8932 11.3735L23.5387 10.6858L24.6711 5.16199L22.8286 4.78425C21.9406 4.6022 21.1565 4.74948 20.4762 5.22607C19.7951 5.70253 19.3546 6.42847 19.1546 7.4039C18.9543 8.381 19.0736 9.22214 19.5124 9.92732C19.9499 10.6331 20.6127 11.0775 21.5009 11.2604L28.5405 12.7036C30.3041 13.0651 31.6527 13.9796 32.5864 15.447C33.5216 16.916 33.8028 18.5593 33.4301 20.3771Z" fill="#4A4A4A"/>
<path d="M48.7847 6.77481L45.7864 6.16012L40.6299 15.1641L43.2981 15.7111L43.9963 14.4025L47.2008 15.0595L47.3278 16.5372L49.9823 17.0814L48.7847 6.77481ZM45.0644 12.4081L46.7002 9.32272L47.0037 12.8057L45.0644 12.4081Z" fill="#E97522"/>
<path d="M56.5828 8.37391L52.6631 7.57031L51.349 13.9803L53.8796 14.4991L54.7045 10.4754L56.0936 10.7602C56.4003 10.8117 56.6925 10.9279 56.951 11.1011C57.2095 11.2742 57.4283 11.5004 57.5931 11.7647C57.9233 12.2972 58.013 12.9312 57.8624 13.6668C57.7116 14.4025 57.3796 14.9501 56.8664 15.3095C56.6109 15.4876 56.3207 15.6095 56.015 15.667C55.7092 15.7244 55.3948 15.7163 55.0926 15.6429L51.1728 14.8393L50.6836 17.2256L54.6034 18.0292C55.9327 18.3017 57.1391 18.0675 58.2227 17.3267C59.3063 16.5858 59.9885 15.5303 60.2692 14.1602C60.5501 12.7902 60.3383 11.5514 59.6338 10.4439C58.9293 9.33639 57.9123 8.6464 56.5828 8.37391Z" fill="#E97522"/>
<path d="M66.3201 10.37L62.4004 9.56641L61.9112 11.9526L65.8309 12.7562C66.1376 12.8078 66.4298 12.924 66.6883 13.0972C66.9468 13.2703 67.1656 13.4965 67.3304 13.7608C67.6606 14.2933 67.7503 14.9274 67.5997 15.6629C67.4489 16.3986 67.1169 16.9462 66.6037 17.3056C66.3482 17.4837 66.058 17.6056 65.7523 17.6631C65.4465 17.7205 65.1321 17.7123 64.8299 17.639L63.4408 17.3542L64.2657 13.3306L61.7351 12.8117L60.4209 19.2217L64.3407 20.0253C65.67 20.2978 66.8764 20.0636 67.96 19.3228C69.0436 18.5819 69.7258 17.5264 70.0065 16.1563C70.2874 14.7863 70.0756 13.5475 69.3711 12.44C68.6666 11.3325 67.6496 10.6425 66.3201 10.37Z" fill="#E97522"/>
<path d="M43.7309 19.0542C44.1839 19.1347 44.6164 19.3046 45.0032 19.5542C45.39 19.8037 45.7233 20.1279 45.984 20.5079C46.5139 21.2778 46.6781 22.1547 46.4765 23.1386C46.2747 24.1227 45.7788 24.8642 44.9886 25.3632C44.5995 25.61 44.1654 25.7768 43.7116 25.8541C43.2578 25.9313 42.7934 25.9173 42.3452 25.813L41.0661 25.5507L40.4722 28.4474L38.0105 27.9428L39.99 18.2873L43.7309 19.0542ZM42.826 23.4681C42.9549 23.4975 43.0885 23.4995 43.2183 23.4741C43.3481 23.4488 43.4713 23.3965 43.5799 23.3208C43.6945 23.2413 43.7921 23.1395 43.8668 23.0215C43.9414 22.9035 43.9917 22.7717 44.0147 22.6339C44.0481 22.4993 44.0537 22.3593 44.0312 22.2224C44.0087 22.0856 43.9585 21.9548 43.8839 21.8382C43.8124 21.7274 43.719 21.6325 43.6096 21.5594C43.5001 21.4862 43.3768 21.4364 43.2473 21.4128L41.9682 21.1506L41.5468 23.2059L42.826 23.4681Z" fill="#B1B1B1"/>
<path d="M53.3032 21.0163L55.7513 21.5181L53.7718 31.1736L51.3237 30.6717L52.0844 26.9613L49.3748 26.4058L48.6141 30.1162L46.1523 29.6115L48.1318 19.9561L50.5936 20.4608L49.8612 24.0332L52.5708 24.5887L53.3032 21.0163Z" fill="#B1B1B1"/>
<path d="M63.8128 31.9314C62.6609 32.6677 61.269 32.9261 59.9317 32.652C58.5943 32.3778 57.4164 31.5925 56.6472 30.4624C56.2658 29.9011 56.004 29.2669 55.8783 28.5994C55.7525 27.9318 55.7654 27.2453 55.9163 26.5826C56.0384 25.9141 56.2966 25.2779 56.6749 24.7136C57.0532 24.1494 57.5434 23.6694 58.1149 23.3034C59.2667 22.5671 60.6586 22.3087 61.996 22.5829C63.3333 22.8571 64.5113 23.6423 65.2805 24.7725C65.6618 25.3338 65.9235 25.968 66.0493 26.6355C66.175 27.3031 66.1621 27.9896 66.0114 28.6522C65.8893 29.3208 65.631 29.957 65.2527 30.5212C64.8744 31.0854 64.3842 31.5655 63.8128 31.9314ZM58.721 29.1196C59.0622 29.6763 59.5864 30.096 60.2035 30.3064C60.8205 30.5169 61.4916 30.5049 62.1013 30.2725C62.7109 30.0401 63.2208 29.6018 63.5432 29.0333C63.8656 28.4648 63.9803 27.8015 63.8675 27.1578C63.7546 26.5141 63.4214 25.9302 62.9251 25.5069C62.4288 25.0835 61.8006 24.8471 61.1487 24.8384C60.4968 24.8298 59.862 25.0493 59.3538 25.4593C58.8455 25.8693 58.4956 26.444 58.3643 27.0845C58.2813 27.4303 58.2701 27.7894 58.3315 28.1395C58.3929 28.4896 58.5255 28.8232 58.721 29.1196Z" fill="#B1B1B1"/>
<path d="M74.2637 25.3134L73.7745 27.6995L71.395 27.2117L69.9047 34.481L67.443 33.9763L68.9333 26.707L66.5538 26.2192L67.043 23.833L74.2637 25.3134Z" fill="#B1B1B1"/>
<path d="M81.2122 35.4988C80.0603 36.2351 78.6685 36.4935 77.3311 36.2193C75.9938 35.9452 74.8158 35.1599 74.0466 34.0298C73.6652 33.4685 73.4034 32.8343 73.2777 32.1667C73.1519 31.4992 73.1648 30.8126 73.3157 30.15C73.4378 29.4815 73.696 28.8452 74.0743 28.281C74.4526 27.7168 74.9428 27.2367 75.5143 26.8708C76.6661 26.1345 78.058 25.8761 79.3954 26.1503C80.7327 26.4245 81.9106 27.2097 82.6799 28.3399C83.0612 28.9011 83.3229 29.5354 83.4487 30.2029C83.5744 30.8705 83.5615 31.557 83.4108 32.2196C83.2887 32.8881 83.0304 33.5244 82.6521 34.0886C82.2738 34.6528 81.7837 35.1329 81.2122 35.4988ZM76.1205 32.687C76.4616 33.2437 76.9859 33.6634 77.6029 33.8738C78.2199 34.0843 78.891 34.0722 79.5007 33.8399C80.1103 33.6075 80.6203 33.1692 80.9427 32.6007C81.2651 32.0321 81.3797 31.3689 81.2669 30.7252C81.154 30.0815 80.8208 29.4976 80.3245 29.0743C79.8282 28.6509 79.2 28.4145 78.5481 28.4058C77.8962 28.3971 77.2615 28.6167 76.7532 29.0267C76.2449 29.4367 75.895 30.0114 75.7637 30.6519C75.6807 30.9977 75.6696 31.3568 75.7309 31.7069C75.7923 32.057 75.9249 32.3906 76.1205 32.687Z" fill="#B1B1B1"/>
</g>
<g style="mix-blend-mode:multiply">
<path d="M2.8744 76.9296L4.12317 71.5919L5.85266 71.9965C6.50804 72.1498 6.92901 72.2765 7.11556 72.3764C7.40267 72.5281 7.61787 72.7628 7.76116 73.0805C7.90502 73.3957 7.92726 73.7658 7.82788 74.1906C7.75122 74.5183 7.62729 74.7799 7.4561 74.9753C7.28492 75.1708 7.09204 75.3113 6.87746 75.3968C6.66588 75.4805 6.4606 75.5208 6.26161 75.5177C5.99238 75.5085 5.61382 75.4468 5.12592 75.3327L4.4232 75.1683L3.95214 77.1818L2.8744 76.9296ZM4.98966 72.747L4.6353 74.2617L5.22515 74.3997C5.64994 74.499 5.94047 74.5376 6.09675 74.5152C6.25302 74.4929 6.38512 74.4316 6.49305 74.3314C6.60341 74.2318 6.67704 74.1031 6.71396 73.9453C6.75939 73.7511 6.73982 73.5776 6.65527 73.4247C6.57071 73.2718 6.44474 73.1591 6.27735 73.0866C6.15438 73.0323 5.89871 72.9597 5.51033 72.8688L4.98966 72.747Z" fill="#989898"/>
<path d="M10.1786 77.3404L11.158 77.7501C10.9395 78.0932 10.6652 78.3299 10.3352 78.46C10.0082 78.5884 9.63235 78.6028 9.20756 78.5034C8.53518 78.3461 8.08897 78.01 7.86892 77.4952C7.69639 77.0836 7.67287 76.6096 7.79837 76.0731C7.94829 75.4323 8.23305 74.9702 8.65264 74.6869C9.0728 74.4012 9.53896 74.3182 10.0511 74.438C10.6264 74.5726 11.0358 74.8694 11.2791 75.3283C11.5231 75.7847 11.5461 76.4033 11.3481 77.1839L8.78481 76.5842C8.72111 76.8893 8.74827 77.1453 8.8663 77.3521C8.98489 77.5566 9.16191 77.6863 9.39737 77.7414C9.55757 77.7789 9.70251 77.7667 9.83219 77.7049C9.96186 77.643 10.0773 77.5215 10.1786 77.3404ZM10.4788 76.32C10.5408 76.0221 10.5168 75.7797 10.407 75.5927C10.2977 75.4033 10.1386 75.2842 9.92989 75.2353C9.70657 75.1831 9.50307 75.2213 9.31938 75.3498C9.13569 75.4784 9.01241 75.6825 8.94953 75.9622L10.4788 76.32Z" fill="#989898"/>
<path d="M13.3023 79.3692L13.6882 77.7199C13.5524 77.6983 13.4519 77.7068 13.3865 77.7453C13.3242 77.7819 13.1988 77.9075 13.0104 78.122L12.261 79.1256L11.1614 78.8684L11.9571 77.9293C12.3588 77.46 12.718 77.2215 13.0347 77.2137C12.8313 77.0765 12.7115 76.8167 12.6755 76.4345C12.6476 76.1489 12.602 75.9718 12.5387 75.9033C12.4783 75.8328 12.3122 75.7658 12.0404 75.7022L12.1988 75.025C12.4031 75.06 12.5453 75.0868 12.6254 75.1056C12.8512 75.1584 13.0325 75.2533 13.1694 75.3903C13.3064 75.5273 13.3989 75.8101 13.4471 76.2387C13.4843 76.5725 13.5259 76.7884 13.5722 76.8862C13.619 76.9817 13.7073 77.0471 13.8373 77.0827L14.207 75.5025L15.2228 75.7401L14.8531 77.3203C14.9842 77.351 15.0924 77.3315 15.1779 77.2619C15.2657 77.1928 15.3988 77.0179 15.5772 76.737C15.8069 76.3786 16.0114 76.1666 16.1906 76.101C16.3723 76.0359 16.5857 76.0321 16.8308 76.0894C16.9012 76.1059 17.0357 76.1438 17.2344 76.203L17.0759 76.8803C16.8065 76.8172 16.6279 76.8036 16.5402 76.8394C16.453 76.8728 16.3335 77.0113 16.1818 77.2548C15.98 77.5814 15.7575 77.761 15.5143 77.7937C15.7947 77.9413 16.0107 78.3144 16.1625 78.9132L16.4591 80.1078L15.3595 79.8505L15.1368 78.6194C15.0959 78.3999 15.0464 78.245 14.9882 78.1546C14.9324 78.0647 14.8377 77.999 14.704 77.9575L14.3182 79.6069L13.3023 79.3692Z" fill="#989898"/>
<path d="M17.8662 76.3585L18.8493 76.5885L18.2811 79.0171L20.4222 76.9565L21.4271 77.1916L20.5225 81.0584L19.5394 80.8284L20.1178 78.3561L17.9446 80.4553L16.9616 80.2253L17.8662 76.3585Z" fill="#989898"/>
<path d="M22.5085 77.4446L23.7756 77.741L24.1065 80.6603L25.7053 78.1925L26.9688 78.4881L26.0642 82.3549L25.1939 82.1513L25.7894 79.6062L24.2509 81.9307L23.3771 81.7262L23.0732 78.9707L22.4777 81.5158L21.6039 81.3114L22.5085 77.4446Z" fill="#989898"/>
<path d="M30.0455 79.2079L30.9994 79.4311L30.8665 79.9991C31.0358 79.8338 31.2402 79.7152 31.4797 79.6433C31.7193 79.5713 31.9677 79.5654 32.225 79.6256C32.6741 79.7307 33.014 79.9958 33.2448 80.421C33.4756 80.8463 33.5175 81.3732 33.3704 82.0019C33.2193 82.6476 32.944 83.1131 32.5444 83.3986C32.1453 83.6816 31.7213 83.7705 31.2722 83.6655C31.0586 83.6155 30.8744 83.5276 30.7195 83.4017C30.567 83.2765 30.419 83.0882 30.2756 82.837L29.8198 84.785L28.7967 84.5456L30.0455 79.2079ZM30.6207 81.3125C30.519 81.747 30.53 82.0888 30.6535 82.3379C30.7775 82.5845 30.9634 82.7368 31.211 82.7947C31.4488 82.8504 31.6688 82.802 31.8709 82.6496C32.0735 82.4947 32.2257 82.2001 32.3273 81.7656C32.4222 81.3602 32.4113 81.0402 32.2946 80.8055C32.178 80.5709 31.9995 80.4254 31.7592 80.3692C31.5092 80.3107 31.2789 80.3592 31.0685 80.5148C30.8585 80.668 30.7093 80.9339 30.6207 81.3125Z" fill="#989898"/>
<path d="M35.1218 81.6397L34.2325 81.255C34.4243 80.9057 34.6687 80.671 34.9656 80.551C35.2625 80.431 35.6622 80.4297 36.1646 80.5473C36.621 80.6541 36.948 80.7882 37.1458 80.9496C37.3441 81.1087 37.4686 81.2825 37.5192 81.471C37.5729 81.6576 37.5477 81.973 37.4438 82.4172L37.1535 83.6089C37.074 83.9488 37.031 84.2037 37.0245 84.3737C37.021 84.5419 37.0426 84.7287 37.0892 84.9342L36.077 84.6974C36.0662 84.6232 36.057 84.5148 36.0494 84.3722C36.0466 84.3075 36.0438 84.2646 36.0411 84.2435C35.8266 84.3725 35.6099 84.4562 35.3909 84.4946C35.172 84.533 34.9497 84.5258 34.7239 84.473C34.3259 84.3799 34.0368 84.1983 33.8567 83.9283C33.6791 83.6589 33.6289 83.3591 33.7061 83.029C33.7572 82.8106 33.8549 82.6286 33.999 82.4831C34.1437 82.3352 34.32 82.2381 34.5279 82.1921C34.7388 82.1441 35.0294 82.1276 35.3997 82.1426C35.8989 82.1646 36.2498 82.1584 36.4525 82.1239L36.4763 82.0219C36.5223 81.8253 36.5064 81.6744 36.4287 81.5691C36.3514 81.4615 36.1781 81.3761 35.9087 81.3131C35.7266 81.2705 35.5761 81.2737 35.4571 81.3226C35.3387 81.3692 35.2269 81.4749 35.1218 81.6397ZM36.2966 82.7902C36.1553 82.8032 35.9356 82.8068 35.6374 82.8011C35.3392 82.7953 35.1396 82.8114 35.0385 82.8492C34.8829 82.9126 34.788 83.0171 34.754 83.1628C34.7205 83.306 34.7449 83.4423 34.8273 83.5717C34.9097 83.701 35.0334 83.785 35.1984 83.8236C35.3829 83.8668 35.5731 83.8473 35.769 83.7651C35.9144 83.7018 36.0221 83.608 36.0922 83.4835C36.1393 83.4024 36.1916 83.2392 36.2489 82.9941L36.2966 82.7902Z" fill="#989898"/>
<path d="M42.059 80.3364L42.7544 80.4991C42.6604 80.8022 42.5243 81.0174 42.346 81.1447C42.1708 81.2701 41.8088 81.2687 41.2603 81.1403C41.1947 81.125 41.1295 81.1084 41.0645 81.0907L40.9334 81.06C40.6082 80.9839 40.3351 80.9584 40.1141 80.9835C39.8938 81.0062 39.6939 81.1054 39.5145 81.2811C39.3376 81.4573 39.1931 81.7742 39.0809 82.2319C39.2978 81.9831 39.5417 81.8161 39.8125 81.731C40.0858 81.6464 40.3875 81.6427 40.7176 81.72C41.2249 81.8387 41.6082 82.137 41.8677 82.615C42.1276 83.0906 42.1968 83.5881 42.0753 84.1076C41.9487 84.6489 41.6542 85.0703 41.192 85.3717C40.7322 85.6738 40.2037 85.755 39.6066 85.6153C39.1963 85.5193 38.8589 85.3367 38.5942 85.0674C38.3295 84.7981 38.1701 84.4779 38.1161 84.1068C38.0627 83.7333 38.1283 83.1521 38.3128 82.3632C38.5297 81.436 38.8555 80.8094 39.2902 80.4836C39.7273 80.1583 40.3706 80.095 41.2202 80.2938L41.7372 80.4147C41.8805 80.4482 41.9877 80.4221 42.059 80.3364ZM39.1659 83.4115C39.0836 83.7635 39.1056 84.0631 39.2321 84.3103C39.3616 84.5557 39.5538 84.7081 39.8087 84.7678C40.083 84.8319 40.3322 84.7789 40.5564 84.6086C40.7836 84.4364 40.9363 84.1829 41.0147 83.8479C41.0948 83.5056 41.0694 83.2091 40.9386 82.9583C40.8108 82.7057 40.6159 82.5487 40.3537 82.4874C40.0988 82.4278 39.8574 82.4801 39.6295 82.6444C39.4017 82.8087 39.2471 83.0644 39.1659 83.4115Z" fill="#989898"/>
<path d="M42.7173 84.1541C42.7968 83.8142 42.9575 83.5049 43.1994 83.2261C43.4412 82.9473 43.7347 82.7599 44.0797 82.664C44.4272 82.5686 44.7903 82.5653 45.1689 82.6538C45.7539 82.7907 46.1887 83.0934 46.4734 83.562C46.7586 84.0281 46.8334 84.5512 46.6976 85.1313C46.5608 85.7163 46.2579 86.1575 45.7889 86.4549C45.323 86.7504 44.8035 86.8311 44.2307 86.6971C43.8763 86.6142 43.5564 86.4549 43.2711 86.2191C42.9881 85.984 42.799 85.6927 42.7036 85.3452C42.6088 84.9953 42.6134 84.5983 42.7173 84.1541ZM43.7531 84.454C43.6634 84.8375 43.6857 85.1525 43.8201 85.399C43.9544 85.6455 44.1551 85.8 44.4221 85.8624C44.6891 85.9249 44.9363 85.8752 45.1636 85.7133C45.3934 85.552 45.5537 85.2772 45.6445 84.8888C45.7331 84.5101 45.7102 84.1976 45.5759 83.9511C45.444 83.7052 45.2445 83.551 44.9775 83.4885C44.7105 83.426 44.4621 83.4754 44.2324 83.6367C44.0026 83.7981 43.8429 84.0705 43.7531 84.454Z" fill="#989898"/>
<path d="M47.304 83.2455L50.803 84.0641L50.6096 84.8906L49.3717 84.601L48.6604 87.6413L47.6373 87.4019L48.3486 84.3616L47.1106 84.072L47.304 83.2455Z" fill="#989898"/>
<path d="M51.4256 84.2098L52.4488 84.4491L52.0731 86.0548L53.0999 86.295C53.5028 86.3893 53.8031 86.4903 54.0006 86.5979C54.2012 86.7037 54.3518 86.8696 54.4526 87.0954C54.5558 87.3218 54.577 87.5649 54.5163 87.8246C54.4288 88.1984 54.2343 88.4499 53.9327 88.579C53.6317 88.7057 53.2239 88.7089 52.7093 88.5885L50.521 88.0765L51.4256 84.2098ZM51.6957 87.6678L52.6461 87.8901C52.8936 87.948 53.0824 87.9512 53.2122 87.8997C53.342 87.8481 53.4274 87.735 53.4683 87.5602C53.512 87.3733 53.469 87.2288 53.3392 87.1268C53.2125 87.0229 52.9622 86.9272 52.5884 86.8398L51.9257 86.6847L51.6957 87.6678ZM55.7403 85.2192L56.7634 85.4585L55.8588 89.3253L54.8356 89.086L55.7403 85.2192Z" fill="#989898"/>
<path d="M57.7474 86.7679L57.9868 85.7447L59.0099 85.9841L58.7705 87.0072L57.7474 86.7679ZM57.0821 89.6115L57.3215 88.5884L58.3446 88.8278L58.1053 89.8509L57.0821 89.6115Z" fill="#989898"/>
<path d="M0.312223 88.1277L1.48859 83.0994L4.83834 83.8831L3.66198 88.9113L3.09762 88.7793L4.13513 84.3445L1.9141 83.8249L0.876584 88.2597L0.312223 88.1277Z" fill="#989898"/>
<path d="M4.747 89.1652L5.83989 84.4937L6.55717 84.6615L6.0793 86.7042L8.05638 87.1667L8.53426 85.1241L9.25518 85.2927L8.1623 89.9642L7.44137 89.7955L7.93032 87.7056L5.95323 87.243L5.46429 89.333L4.747 89.1652Z" fill="#989898"/>
<path d="M9.31264 88.5436L9.46682 87.8845L11.4803 88.3556L11.3261 89.0146L9.31264 88.5436Z" fill="#989898"/>
<path d="M11.7815 90.8109L12.9578 85.7826L16.3076 86.5663L15.1312 91.5946L14.5669 91.4625L15.6044 87.0278L13.3834 86.5082L12.3458 90.9429L11.7815 90.8109Z" fill="#989898"/>
<path d="M17.5635 92.1636L18.5303 88.031L16.7352 87.6111L16.8613 87.0722L21.1723 88.0807L21.0462 88.6196L19.2512 88.1997L18.2844 92.3323L17.5635 92.1636Z" fill="#989898"/>
<path d="M23.1712 90.699C23.3188 90.0679 23.5018 89.5756 23.7202 89.2222C23.9416 88.8669 24.2041 88.6147 24.5078 88.4655C24.814 88.317 25.1612 88.2881 25.5496 88.379C25.836 88.446 26.0736 88.563 26.2624 88.7301C26.4518 88.8947 26.5913 89.1027 26.6809 89.3541C26.7712 89.6031 26.8197 89.8935 26.8266 90.2254C26.834 90.5548 26.7758 90.9841 26.652 91.5133C26.5055 92.1396 26.3228 92.6306 26.1038 92.9865C25.8854 93.3399 25.6229 93.5921 25.3162 93.7431C25.0125 93.8922 24.6652 93.9211 24.2744 93.8296C23.7598 93.7092 23.3988 93.4302 23.1914 92.9925C22.9434 92.466 22.9366 91.7015 23.1712 90.699ZM23.8448 90.8566C23.6398 91.7328 23.6051 92.3405 23.7409 92.6794C23.8796 93.0166 24.0995 93.2203 24.4005 93.2908C24.7015 93.3612 24.988 93.2746 25.2601 93.031C25.5345 92.788 25.774 92.2296 25.9784 91.3557C26.184 90.477 26.2174 89.8691 26.0787 89.532C25.9423 89.1954 25.7212 88.9914 25.4154 88.9198C25.1144 88.8494 24.8443 88.9206 24.605 89.1335C24.3032 89.4059 24.0498 89.9803 23.8448 90.8566Z" fill="#989898"/>
<path d="M27.0932 93.0912L27.7367 93.1803C27.7208 93.4889 27.7725 93.7276 27.8918 93.8963C28.011 94.065 28.1884 94.1769 28.4238 94.232C28.6253 94.2792 28.8121 94.2742 28.9842 94.2172C29.1587 94.1607 29.3124 94.0674 29.4452 93.9372C29.5787 93.8045 29.7088 93.6148 29.8357 93.368C29.9626 93.1212 30.0578 92.8618 30.1214 92.59C30.1282 92.5608 30.1372 92.5168 30.1484 92.458C29.9685 92.6361 29.7491 92.764 29.4903 92.8417C29.2344 92.9175 28.9742 92.9245 28.7097 92.8626C28.2679 92.7593 27.9315 92.5116 27.7007 92.1196C27.4698 91.7277 27.4157 91.2695 27.5383 90.7452C27.665 90.2039 27.9259 89.8054 28.3211 89.5497C28.7187 89.2945 29.1579 89.2232 29.6385 89.3356C29.9856 89.4168 30.2805 89.5844 30.5232 89.8383C30.7683 90.0928 30.9243 90.4109 30.9912 90.7926C31.0611 91.1725 31.0193 91.6902 30.866 92.3456C30.7064 93.0276 30.5052 93.5541 30.2623 93.9248C30.0199 94.2931 29.7272 94.5485 29.3841 94.6909C29.0434 94.834 28.6764 94.8595 28.2832 94.7675C27.8657 94.6698 27.5516 94.4747 27.341 94.1822C27.1309 93.8873 27.0483 93.5236 27.0932 93.0912ZM30.3277 91.3632C30.4158 90.987 30.3849 90.6649 30.2351 90.3968C30.0877 90.1294 29.8732 89.9627 29.5917 89.8968C29.3004 89.8287 29.0189 89.8883 28.7472 90.0756C28.4755 90.263 28.2954 90.546 28.2068 90.9247C28.1273 91.2645 28.1645 91.5651 28.3184 91.8264C28.4754 92.0858 28.7043 92.2507 29.0053 92.3212C29.3087 92.3921 29.5822 92.3448 29.8258 92.179C30.0724 92.0114 30.2397 91.7395 30.3277 91.3632Z" fill="#989898"/>
<path d="M31.951 92.2384L32.1256 91.492L32.872 91.6666L32.6974 92.413L31.951 92.2384ZM31.221 95.3588L31.3956 94.6124L32.142 94.787L31.9674 95.5334L31.221 95.3588Z" fill="#989898"/>
<path d="M33.5481 93.1267C33.6958 92.4955 33.8788 92.0033 34.0972 91.6498C34.3185 91.2946 34.5811 91.0424 34.8848 90.8932C35.1909 90.7447 35.5382 90.7158 35.9266 90.8067C36.213 90.8737 36.4506 90.9907 36.6394 91.1578C36.8287 91.3224 36.9682 91.5304 37.0579 91.7818C37.1481 92.0308 37.1967 92.3212 37.2035 92.6531C37.2109 92.9825 37.1528 93.4118 37.029 93.941C36.8824 94.5673 36.6997 95.0583 36.4808 95.4142C36.2624 95.7676 35.9999 96.0198 35.6932 96.1708C35.3894 96.3199 35.0422 96.3487 34.6514 96.2573C34.1368 96.1369 33.7758 95.8579 33.5684 95.4202C33.3204 94.8937 33.3136 94.1292 33.5481 93.1267ZM34.2217 93.2842C34.0167 94.1605 33.9821 94.7681 34.1178 95.1071C34.2566 95.4443 34.4765 95.648 34.7775 95.7184C35.0784 95.7889 35.365 95.7023 35.637 95.4587C35.9115 95.2157 36.1509 94.6573 36.3554 93.7834C36.5609 92.9047 36.5944 92.2968 36.4556 91.9597C36.3193 91.6231 36.0982 91.4191 35.7924 91.3475C35.4914 91.2771 35.2212 91.3483 34.982 91.5611C34.6801 91.8336 34.4267 92.408 34.2217 93.2842Z" fill="#989898"/>
<path d="M37.6989 94.0977C37.8466 93.4666 38.0296 92.9743 38.2479 92.6209C38.4693 92.2656 38.7319 92.0134 39.0356 91.8643C39.3417 91.7157 39.689 91.6869 40.0773 91.7778C40.3638 91.8448 40.6014 91.9618 40.7901 92.1289C40.9795 92.2935 41.119 92.5015 41.2087 92.7529C41.2989 93.0019 41.3475 93.2923 41.3543 93.6242C41.3617 93.9536 41.3035 94.3829 41.1797 94.9121C41.0332 95.5383 40.8505 96.0294 40.6316 96.3852C40.4132 96.7387 40.1506 96.9909 39.8439 97.1418C39.5402 97.291 39.193 97.3198 38.8022 97.2284C38.2876 97.108 37.9266 96.829 37.7192 96.3913C37.4711 95.8648 37.4644 95.1002 37.6989 94.0977ZM38.3725 94.2553C38.1675 95.1316 38.1329 95.7392 38.2686 96.0782C38.4074 96.4153 38.6272 96.6191 38.9282 96.6895C39.2292 96.7599 39.5157 96.6734 39.7878 96.4298C40.0623 96.1868 40.3017 95.6283 40.5061 94.7545C40.7117 93.8758 40.7451 93.2679 40.6064 92.9307C40.4701 92.5942 40.249 92.3901 39.9431 92.3186C39.6421 92.2482 39.372 92.3194 39.1328 92.5322C38.8309 92.8047 38.5775 93.379 38.3725 94.2553Z" fill="#989898"/>
<path d="M43.6112 96.5677L43.7654 95.9087L45.7789 96.3797L45.6247 97.0388L43.6112 96.5677Z" fill="#989898"/>
<path d="M50.3364 99.8308L49.681 99.6775L50.6581 95.5012C50.4651 95.6148 50.2223 95.7168 49.9298 95.8071C49.6397 95.8979 49.3839 95.9571 49.1624 95.9847L49.3107 95.3511C49.7175 95.2645 50.0868 95.1307 50.4184 94.9498C50.7501 94.7688 50.9999 94.5763 51.1679 94.3724L51.5903 94.4712L50.3364 99.8308Z" fill="#989898"/>
<path d="M53.7043 97.5657C53.4558 97.4026 53.2875 97.2134 53.1996 96.9983C53.1117 96.7831 53.0978 96.5469 53.158 96.2896C53.2489 95.9012 53.4648 95.6074 53.8059 95.4081C54.1469 95.2089 54.5492 95.1635 55.0129 95.2719C55.4789 95.381 55.8221 95.6046 56.0425 95.9429C56.2635 96.2788 56.3286 96.6409 56.2377 97.0293C56.1798 97.2769 56.0637 97.4776 55.8895 97.6314C55.7182 97.7834 55.4887 97.8782 55.2008 97.9158C55.5035 98.0993 55.712 98.3298 55.8263 98.6074C55.9429 98.8856 55.9627 99.1898 55.8854 99.5199C55.7787 99.9763 55.5275 100.322 55.132 100.557C54.7365 100.792 54.2754 100.848 53.7486 100.725C53.2219 100.602 52.8334 100.347 52.5833 99.9609C52.3337 99.5723 52.2634 99.1449 52.3725 98.6789C52.4537 98.3317 52.6089 98.0621 52.8382 97.87C53.0705 97.676 53.3592 97.5746 53.7043 97.5657ZM53.8331 96.4245C53.774 96.677 53.8071 96.9023 53.9322 97.1006C54.0574 97.2988 54.2498 97.4283 54.5095 97.4891C54.762 97.5481 54.9868 97.5175 55.1839 97.3972C55.384 97.2751 55.511 97.0987 55.565 96.8681C55.6212 96.6278 55.5846 96.4067 55.4551 96.2049C55.3287 96.0012 55.1417 95.8704 54.8941 95.8125C54.6441 95.754 54.4178 95.7856 54.2152 95.9072C54.0127 96.0287 53.8853 96.2012 53.8331 96.4245ZM53.0452 98.8401C53.0015 99.027 53.0029 99.2181 53.0494 99.4133C53.0983 99.609 53.1988 99.7759 53.3508 99.9139C53.5034 100.049 53.6805 100.141 53.882 100.188C54.1951 100.261 54.4772 100.221 54.7282 100.067C54.9792 99.9134 55.1411 99.6812 55.2138 99.3705C55.2876 99.0549 55.2431 98.7693 55.0802 98.5135C54.9197 98.2584 54.6817 98.0939 54.3661 98.0201C54.0578 97.9479 53.7779 97.99 53.5263 98.1462C53.2771 98.3029 53.1168 98.5342 53.0452 98.8401Z" fill="#989898"/>
<path d="M57.2635 98.1603L57.4381 97.4138L58.1845 97.5885L58.0099 98.3349L57.2635 98.1603ZM56.5335 101.281L56.7081 100.534L57.4545 100.709L57.2799 101.455L56.5335 101.281Z" fill="#989898"/>
<path d="M58.8606 99.0485C59.0083 98.4174 59.1913 97.9251 59.4096 97.5717C59.631 97.2164 59.8936 96.9642 60.1973 96.8151C60.5034 96.6665 60.8507 96.6377 61.239 96.7285C61.5255 96.7955 61.7631 96.9126 61.9518 97.0796C62.1412 97.2443 62.2807 97.4523 62.3704 97.7037C62.4606 97.9526 62.5092 98.2431 62.516 98.5749C62.5234 98.9044 62.4652 99.3337 62.3414 99.8628C62.1949 100.489 62.0122 100.98 61.7933 101.336C61.5749 101.689 61.3123 101.942 61.0056 102.093C60.7019 102.242 60.3547 102.271 59.9639 102.179C59.4493 102.059 59.0883 101.78 58.8809 101.342C58.6328 100.816 58.6261 100.051 58.8606 99.0485ZM59.5342 99.2061C59.3292 100.082 59.2946 100.69 59.4303 101.029C59.5691 101.366 59.7889 101.57 60.0899 101.64C60.3909 101.711 60.6774 101.624 60.9495 101.381C61.224 101.138 61.4634 100.579 61.6678 99.7053C61.8734 98.8266 61.9068 98.2186 61.7681 97.8815C61.6318 97.545 61.4107 97.3409 61.1048 97.2693C60.8038 97.1989 60.5337 97.2701 60.2945 97.483C59.9926 97.7555 59.7392 98.3298 59.5342 99.2061Z" fill="#989898"/>
<path d="M63.0114 100.02C63.159 99.3885 63.342 98.8962 63.5604 98.5428C63.7818 98.1875 64.0443 97.9353 64.348 97.7862C64.6542 97.6376 65.0014 97.6088 65.3898 97.6996C65.6762 97.7666 65.9139 97.8837 66.1026 98.0507C66.292 98.2153 66.4315 98.4233 66.5212 98.6747C66.6114 98.9237 66.6599 99.2141 66.6668 99.546C66.6742 99.8755 66.616 100.305 66.4922 100.834C66.3457 101.46 66.163 101.951 65.944 102.307C65.7257 102.661 65.4631 102.913 65.1564 103.064C64.8527 103.213 64.5055 103.242 64.1146 103.15C63.6 103.03 63.239 102.751 63.0317 102.313C62.7836 101.787 62.7769 101.022 63.0114 100.02ZM63.685 100.177C63.48 101.053 63.4454 101.661 63.5811 102C63.7199 102.337 63.9397 102.541 64.2407 102.611C64.5417 102.682 64.8282 102.595 65.1003 102.352C65.3747 102.109 65.6142 101.55 65.8186 100.676C66.0242 99.7976 66.0576 99.1897 65.9189 98.8526C65.7825 98.516 65.5615 98.312 65.2556 98.2404C64.9546 98.17 64.6845 98.2412 64.4452 98.4541C64.1434 98.7265 63.89 99.3009 63.685 100.177Z" fill="#989898"/>
<path d="M8.36252 58.724L8.68706 57.3367L7.2889 57.0096L7.51293 56.052L8.91109 56.3791L9.23563 54.9919L10.1677 55.21L9.84319 56.5972L11.245 56.9251L11.021 57.8827L9.61916 57.5548L9.29462 58.942L8.36252 58.724Z" fill="#989898"/>
<path d="M12.156 55.871L12.3783 54.9207L15.8774 55.7393L15.7036 56.482C15.3483 56.6984 14.9592 57.0375 14.5362 57.4993C14.1133 57.961 13.7528 58.4732 13.4548 59.0359C13.1597 59.5966 12.9583 60.1128 12.8506 60.5842L11.8639 60.3534C12.0535 59.6195 12.3812 58.9025 12.8471 58.2024C13.3154 57.503 13.8606 56.9072 14.4826 56.4153L12.156 55.871Z" fill="#989898"/>
<path d="M18.9208 63.6595L18.2181 63.4951C17.9779 62.8475 17.8314 62.1988 17.7786 61.549C17.7258 60.8991 17.7656 60.2914 17.8979 59.7259C18.062 59.0243 18.3375 58.3886 18.7243 57.8185C19.0603 57.3236 19.4421 56.8843 19.8698 56.5005L20.5689 56.664C20.0643 57.3217 19.6884 57.8943 19.4412 58.3818C19.197 58.8675 19.0074 59.3991 18.8722 59.9768C18.7791 60.3749 18.7201 60.7912 18.6952 61.2258C18.6728 61.6609 18.6819 62.0816 18.7225 62.488C18.7496 62.7554 18.8157 63.146 18.9208 63.6595Z" fill="#989898"/>
<path d="M20.1666 60.9939L21.1825 61.1164C21.1596 61.3236 21.1878 61.4876 21.267 61.6086C21.3463 61.7295 21.4696 61.8096 21.6371 61.8487C21.8483 61.8982 22.0506 61.8431 22.2441 61.6835C22.4376 61.524 22.6266 61.1432 22.8109 60.5411C22.4838 60.7795 22.1272 60.8536 21.7413 60.7633C21.3214 60.665 20.9962 60.4187 20.7659 60.0243C20.5386 59.6281 20.4857 59.1702 20.6072 58.6508C20.7339 58.1095 20.996 57.7112 21.3936 57.4561C21.7943 57.199 22.2434 57.1287 22.741 57.2452C23.2823 57.3718 23.6774 57.6857 23.9263 58.1868C24.1757 58.6855 24.1883 59.4143 23.9639 60.3731C23.7357 61.3489 23.3901 62.0105 22.9274 62.358C22.4646 62.7054 21.9432 62.8113 21.363 62.6756C20.9455 62.5779 20.634 62.3885 20.4283 62.1074C20.2233 61.8239 20.136 61.4528 20.1666 60.9939ZM23.0053 59.3001C23.0825 58.97 23.066 58.696 22.9556 58.4782C22.8477 58.2609 22.6942 58.129 22.4952 58.0824C22.3059 58.0381 22.1305 58.0765 21.9691 58.1975C21.8106 58.3166 21.6916 58.546 21.6121 58.8859C21.5315 59.2305 21.5401 59.5001 21.638 59.6945C21.7365 59.8865 21.8876 60.0064 22.0915 60.0541C22.2882 60.1001 22.4714 60.061 22.6412 59.9369C22.8135 59.8134 22.9349 59.6011 23.0053 59.3001Z" fill="#989898"/>
<path d="M24.3173 61.965L25.3333 62.0875C25.3104 62.2946 25.3386 62.4587 25.4178 62.5796C25.497 62.7006 25.6204 62.7806 25.7879 62.8198C25.9991 62.8692 26.2014 62.8142 26.3949 62.6546C26.5884 62.4951 26.7773 62.1143 26.9617 61.5122C26.6346 61.7506 26.278 61.8246 25.8921 61.7343C25.4721 61.6361 25.147 61.3898 24.9167 60.9954C24.6894 60.5991 24.6365 60.1413 24.758 59.6218C24.8846 59.0805 25.1468 58.6823 25.5444 58.4271C25.9451 58.1701 26.3942 58.0998 26.8918 58.2162C27.4331 58.3429 27.8282 58.6568 28.077 59.1579C28.3265 59.6566 28.339 60.3854 28.1147 61.3442C27.8864 62.32 27.5409 62.9816 27.0782 63.3291C26.6154 63.6765 26.094 63.7824 25.5138 63.6467C25.0963 63.549 24.7847 63.3596 24.5791 63.0785C24.3741 62.795 24.2868 62.4238 24.3173 61.965ZM27.1561 60.2712C27.2333 59.9411 27.2167 59.6671 27.1064 59.4493C26.9985 59.232 26.845 59.1001 26.646 59.0535C26.4566 59.0092 26.2813 59.0476 26.1198 59.1685C25.9614 59.2876 25.8424 59.5171 25.7629 59.8569C25.6823 60.2016 25.6909 60.4712 25.7888 60.6656C25.8872 60.8576 26.0384 60.9775 26.2423 61.0252C26.4389 61.0712 26.6222 61.0321 26.792 60.908C26.9643 60.7844 27.0856 60.5722 27.1561 60.2712Z" fill="#989898"/>
<path d="M28.4681 62.9361L29.484 63.0586C29.4612 63.2657 29.4894 63.4298 29.5686 63.5507C29.6478 63.6716 29.7712 63.7517 29.9387 63.7909C30.1499 63.8403 30.3522 63.7852 30.5457 63.6257C30.7392 63.4661 30.9281 63.0853 31.1125 62.4833C30.7854 62.7217 30.4288 62.7957 30.0429 62.7054C29.6229 62.6072 29.2978 62.3609 29.0675 61.9665C28.8402 61.5702 28.7873 61.1124 28.9088 60.5929C29.0354 60.0516 29.2976 59.6534 29.6952 59.3982C30.0958 59.1412 30.545 59.0709 31.0426 59.1873C31.5839 59.3139 31.979 59.6278 32.2278 60.129C32.4773 60.6277 32.4898 61.3564 32.2655 62.3152C32.0372 63.291 31.6917 63.9527 31.2289 64.3001C30.7662 64.6476 30.2447 64.7535 29.6646 64.6177C29.2471 64.5201 28.9355 64.3307 28.7299 64.0496C28.5248 63.7661 28.4376 63.3949 28.4681 62.9361ZM31.3068 61.2423C31.3841 60.9121 31.3675 60.6382 31.2572 60.4203C31.1493 60.2031 30.9958 60.0712 30.7968 60.0246C30.6074 59.9803 30.432 60.0186 30.2706 60.1396C30.1122 60.2587 29.9932 60.4882 29.9137 60.828C29.8331 61.1727 29.8417 61.4423 29.9396 61.6367C30.038 61.8287 30.1892 61.9485 30.3931 61.9962C30.5897 62.0422 30.7729 62.0032 30.9428 61.8791C31.1151 61.7555 31.2364 61.5432 31.3068 61.2423Z" fill="#989898"/>
<path d="M31.8756 66.6903C32.1782 66.3054 32.3977 66.0073 32.5342 65.796C32.6706 65.5847 32.8093 65.3368 32.9501 65.0523C33.0909 64.7677 33.2098 64.4947 33.3068 64.2332C33.4044 63.9693 33.4864 63.6954 33.5529 63.4114C33.688 62.8337 33.7539 62.273 33.7505 61.7295C33.7477 61.1835 33.666 60.5038 33.5055 59.6905L34.201 59.8532C34.4454 60.4609 34.5999 61.0808 34.6645 61.7129C34.7316 62.3456 34.6947 62.9629 34.5538 63.5649C34.4352 64.0722 34.2279 64.5972 33.9319 65.1399C33.5977 65.7478 33.1477 66.3197 32.582 66.8556L31.8756 66.6903Z" fill="#989898"/>
<path d="M38.8731 66.6722L39.1244 65.5981L36.9397 65.087L37.1493 64.1913L40.258 61.3433L41.1173 61.5443L40.3251 64.9305L40.9878 65.0855L40.7774 65.9848L40.1147 65.8298L39.8634 66.9039L38.8731 66.6722ZM39.3348 64.6988L39.7615 62.8746L38.1077 64.4117L39.3348 64.6988Z" fill="#989898"/>
<path d="M41.3533 65.8047L42.3975 65.9376C42.3727 66.175 42.416 66.3784 42.5274 66.5479C42.6394 66.7149 42.7888 66.8202 42.9758 66.864C43.1894 66.9139 43.3904 66.8701 43.5787 66.7324C43.7677 66.5922 43.9031 66.3474 43.9848 65.9979C44.0615 65.6702 44.0448 65.4077 43.9348 65.2104C43.8278 65.0113 43.6565 64.8842 43.4211 64.8291C43.1274 64.7604 42.8336 64.8286 42.5398 65.0338L41.7378 64.7195L42.912 62.064L45.6173 62.6969L45.3933 63.6545L43.4636 63.203L43.0912 64.0722C43.3461 64.0115 43.5925 64.009 43.8304 64.0646C44.2843 64.1708 44.6304 64.4259 44.8687 64.8298C45.107 65.2338 45.1646 65.6991 45.0414 66.2258C44.9386 66.6652 44.7194 67.0274 44.3839 67.3124C43.9266 67.7021 43.3897 67.8249 42.7732 67.6806C42.2804 67.5654 41.9096 67.3391 41.6608 67.0018C41.412 66.6645 41.3095 66.2655 41.3533 65.8047Z" fill="#989898"/>
<path d="M49.5777 64.9253L48.5617 64.8028C48.5852 64.5933 48.5573 64.428 48.478 64.3071C48.3988 64.1861 48.2779 64.1066 48.1152 64.0686C47.8992 64.018 47.6932 64.0722 47.4973 64.2312C47.3038 64.3908 47.1158 64.7731 46.9333 65.3781C47.2586 65.1367 47.6105 65.0603 47.9892 65.1489C48.4164 65.2489 48.7437 65.497 48.971 65.8932C49.2008 66.2901 49.2554 66.7458 49.1351 67.2604C49.0073 67.8065 48.7446 68.2072 48.3469 68.4623C47.9493 68.7175 47.4992 68.7863 46.9968 68.6687C46.4579 68.5427 46.0637 68.2303 45.8143 67.7316C45.5654 67.2304 45.5526 66.5029 45.7758 65.5489C46.0046 64.5707 46.3504 63.9079 46.8132 63.5604C47.2759 63.213 47.7962 63.1068 48.3739 63.242C48.7793 63.3368 49.0875 63.5293 49.2988 63.8193C49.513 64.1075 49.6059 64.4762 49.5777 64.9253ZM46.7361 66.6146C46.6583 66.9472 46.6746 67.2224 46.7849 67.4402C46.8958 67.6556 47.0496 67.7863 47.2462 67.8323C47.4356 67.8766 47.6107 67.8395 47.7715 67.7209C47.9324 67.6024 48.0523 67.3744 48.1312 67.037C48.2124 66.6899 48.2038 66.4204 48.1053 66.2284C48.0075 66.0339 47.8566 65.9129 47.6527 65.8652C47.4561 65.8192 47.2716 65.8579 47.0993 65.9815C46.9276 66.1026 46.8066 66.3137 46.7361 66.6146Z" fill="#989898"/>
<path d="M52.9459 66.9268C52.7074 66.7533 52.5502 66.5552 52.4743 66.3326C52.4013 66.1082 52.3921 65.8795 52.4466 65.6464C52.5398 65.2483 52.7551 64.9518 53.0926 64.7568C53.4325 64.5624 53.8585 64.5251 54.3707 64.6449C54.878 64.7636 55.2409 64.9855 55.4592 65.3105C55.68 65.6361 55.7439 65.9979 55.6508 66.396C55.5928 66.6436 55.4768 66.8495 55.3027 67.0135C55.1292 67.1752 54.914 67.2798 54.6572 67.3272C54.9255 67.5154 55.1094 67.7415 55.2089 68.0054C55.3109 68.27 55.327 68.5515 55.2571 68.8501C55.1418 69.3428 54.8904 69.7064 54.5027 69.9409C54.1174 70.1759 53.6639 70.2324 53.142 70.1103C52.6565 69.9967 52.2822 69.7747 52.019 69.4443C51.7083 69.0541 51.6143 68.5969 51.7369 68.0726C51.8045 67.7838 51.938 67.5359 52.1375 67.3291C52.3375 67.1199 52.6069 66.9858 52.9459 66.9268ZM53.3981 65.9458C53.3504 66.1497 53.3703 66.3221 53.4577 66.4628C53.5475 66.6042 53.6883 66.6973 53.88 66.7422C54.0742 66.7876 54.2429 66.7669 54.3861 66.6801C54.5299 66.5908 54.6256 66.4442 54.6733 66.2403C54.7182 66.0486 54.6957 65.882 54.6059 65.7407C54.5191 65.5975 54.381 65.5037 54.1917 65.4594C53.995 65.4134 53.8248 65.4351 53.6811 65.5243C53.5373 65.6136 53.443 65.7541 53.3981 65.9458ZM52.7685 68.2103C52.7026 68.4918 52.7229 68.7283 52.8292 68.9195C52.9379 69.1114 53.1003 69.2326 53.3163 69.2831C53.5275 69.3325 53.7199 69.2982 53.8934 69.18C54.0676 69.0595 54.1881 68.856 54.2551 68.5696C54.3136 68.3196 54.2901 68.1028 54.1845 67.9194C54.0795 67.7335 53.919 67.6153 53.7029 67.5648C53.4529 67.5063 53.2459 67.5487 53.0817 67.6921C52.9201 67.8361 52.8156 68.0088 52.7685 68.2103Z" fill="#989898"/>
<path d="M58.5287 65.6177C59.0458 65.7387 59.4068 66.0177 59.6117 66.4548C59.8566 66.9729 59.8607 67.7381 59.6239 68.7503C59.3876 69.7601 59.0431 70.445 58.5902 70.805C58.2161 71.1015 57.7706 71.1893 57.2536 71.0683C56.7341 70.9468 56.362 70.6498 56.1371 70.1773C55.9128 69.7024 55.9205 68.9528 56.1602 67.9284C56.3953 66.9235 56.7393 66.241 57.1921 65.881C57.5662 65.5845 58.0117 65.4967 58.5287 65.6177ZM58.3303 66.4661C58.2065 66.4371 58.0867 66.4513 57.9708 66.5087C57.8556 66.5637 57.7474 66.6868 57.6463 66.8782C57.514 67.1264 57.3746 67.5635 57.2281 68.1898C57.0816 68.8161 57.0123 69.2543 57.0203 69.5045C57.0289 69.7523 57.0715 69.9261 57.148 70.0259C57.2269 70.1263 57.3283 70.191 57.452 70.22C57.5758 70.2489 57.6954 70.2359 57.8106 70.181C57.9265 70.1236 58.0349 69.9992 58.136 69.8078C58.2678 69.5621 58.4069 69.1261 58.5534 68.4999C58.6999 67.8736 58.7689 67.4366 58.7603 67.1888C58.7523 66.9386 58.7088 66.7633 58.6299 66.6629C58.5539 66.5606 58.4541 66.495 58.3303 66.4661Z" fill="#989898"/>
<path d="M65.4492 71.8874L65.2269 72.8377L61.6405 71.9986C61.7634 71.6485 61.9594 71.3359 62.2285 71.0609C62.4982 70.7835 62.9817 70.446 63.6789 70.0484C64.2406 69.7267 64.5916 69.5016 64.7317 69.3731C64.9219 69.1948 65.0411 69.0025 65.0894 68.7962C65.1428 68.568 65.1218 68.3788 65.0264 68.2285C64.934 68.0763 64.7798 67.9749 64.5637 67.9244C64.3501 67.8744 64.1652 67.899 64.0088 67.9981C63.8525 68.0972 63.7297 68.2938 63.6405 68.5878L62.6448 68.2473C62.8372 67.6984 63.1223 67.3388 63.5001 67.1686C63.8779 66.9984 64.3071 66.9695 64.7877 67.082C65.3144 67.2052 65.6951 67.444 65.9296 67.7984C66.1642 68.1529 66.232 68.5413 66.1332 68.9636C66.077 69.2039 65.9796 69.4231 65.8412 69.6211C65.7057 69.8173 65.5166 70.0124 65.2741 70.2066C65.1134 70.3354 64.8369 70.5101 64.4448 70.7307C64.0527 70.9513 63.8016 71.0999 63.6915 71.1766C63.5838 71.2538 63.4925 71.3323 63.4175 71.412L65.4492 71.8874Z" fill="#989898"/>
<path d="M69.6 72.8584L69.3777 73.8087L65.7913 72.9697C65.9141 72.6195 66.1102 72.307 66.3793 72.032C66.649 71.7546 67.1325 71.4171 67.8297 71.0195C68.3914 70.6978 68.7424 70.4726 68.8825 70.3441C69.0727 70.1659 69.1919 69.9736 69.2402 69.7673C69.2936 69.5391 69.2726 69.3499 69.1772 69.1995C69.0848 69.0474 68.9305 68.946 68.7145 68.8954C68.5009 68.8455 68.3159 68.87 68.1596 68.9692C68.0033 69.0683 67.8805 69.2649 67.7912 69.5589L66.7956 69.2184C66.988 68.6695 67.2731 68.3099 67.6509 68.1397C68.0287 67.9695 68.4579 67.9406 68.9385 68.053C69.4652 68.1763 69.8458 68.4151 70.0804 68.7695C70.315 69.1239 70.3828 69.5123 70.284 69.9347C70.2278 70.175 70.1304 70.3942 69.9919 70.5922C69.8564 70.7883 69.6674 70.9835 69.4249 71.1776C69.2641 71.3065 68.9877 71.4812 68.5956 71.7018C68.2035 71.9224 67.9524 72.071 67.8423 72.1477C67.7346 72.2249 67.6433 72.3034 67.5683 72.3831L69.6 72.8584Z" fill="#989898"/>
</g>
<defs>
<clipPath id="clip0_42_429">
<rect width="71.1831" height="23.1114" fill="white" transform="translate(17.2871 0.317383) rotate(11.5858)"/>
</clipPath>
</defs>
</svg>
