<svg width="450" height="484" viewBox="0 0 450 484" fill="none" xmlns="http://www.w3.org/2000/svg">
<path d="M155.046 383.186C118.348 362.532 74.5471 330.989 41.4634 285.294C33.0204 273.633 -19.1368 201.595 7.5134 174.322C16.901 164.715 28.139 168.776 40.9148 156.151C56.0532 141.191 49.9646 125.914 54.9137 99.3116C57.8668 83.4383 66.5089 36.9847 102 28.8202C123.208 23.9413 153.044 32.9559 170.432 49.1116C195.936 72.8084 189.661 107.225 178.036 165.275C167.73 216.734 157.948 225.219 151.174 262.404C146.147 290.001 143.335 330.346 155.046 383.186Z" fill="#B3CEE0"/>
<g style="mix-blend-mode:soft-light" opacity="0.5">
<path d="M158.887 388.063C167.319 399.556 176.782 410.258 187.158 420.036C219.104 450.16 258.846 471.681 305.283 484L305.836 481.918C259.75 469.692 220.319 448.345 188.638 418.47C75.2776 311.572 112.997 135.017 127.258 83.4519C135.346 54.2097 152.784 26.6773 179.09 1.62036L177.602 0.0615234C151.011 25.3914 133.374 53.2552 125.181 82.878C113.436 125.344 101.294 190.451 110.152 259.458C116.588 309.597 132.938 352.684 158.887 388.063Z" fill="white"/>
</g>
<g style="mix-blend-mode:soft-light" opacity="0.5">
<path d="M109.642 171.374L110.545 171.023C111.246 170.751 180.899 143.036 198.221 78.4671L196.139 77.9095C180.161 137.47 118.826 165.196 110.659 168.647C62.1805 74.1522 95.848 17.1269 107.356 1.8688C107.675 1.44532 107.869 1.1757 107.928 1.07045L106.058 0C105.998 0.0938848 105.852 0.284305 105.635 0.572638C93.8992 16.1322 59.4735 74.3725 109.197 170.514L109.642 171.374Z" fill="white"/>
</g>
<g style="mix-blend-mode:soft-light" opacity="0.5">
<path d="M28.2322 200.01C42.231 219.096 67.0651 242.079 110.687 259.173L111.223 259.384L111.696 259.055C112.163 258.73 158.759 225.824 189.094 162.222L219.657 98.1407L217.711 97.2139L187.148 161.295C158.692 220.959 115.854 253.362 110.928 256.954C59.8546 236.808 35.0119 208.574 23.1547 188.402C10.3077 166.541 9.55873 149.289 9.55263 149.118L7.39844 149.193C7.42423 149.917 8.17521 167.165 21.2963 189.492C23.4286 193.113 25.7436 196.624 28.2322 200.01Z" fill="white"/>
</g>
<path d="M181.455 382.834C199.084 369.27 222.796 346.761 235.838 312.933C252.943 268.568 236.668 243.715 246.31 166.717C252.406 118.031 257.151 84.1166 283.562 68.3078C304.258 55.9193 335.782 56.1332 353.451 71.2153C368.142 83.7557 374.976 108.043 376.125 125.016C377.062 138.849 374.274 148.553 381.424 156.49C388.732 164.602 397.801 161.299 404.774 167.459C418.914 179.952 406.537 215.549 404.536 221.302C382.284 285.3 317.518 323.602 289.066 339.97C265.54 353.504 229.476 371.077 181.455 382.834Z" fill="#CFE0ED"/>
<g style="mix-blend-mode:soft-light" opacity="0.5">
<path d="M195.186 390.545L194.809 389.161C235.606 378.067 287.51 355.526 303.1 311.142C308.833 294.821 309.075 277.339 309.41 253.143C309.678 233.821 308.123 220.103 306.752 208C304.957 192.161 303.539 179.65 307.102 162.037C310.718 144.166 318.428 126.805 330.019 110.435L331.191 111.263C319.716 127.469 312.085 144.648 308.509 162.321C304.991 179.713 306.397 192.125 308.178 207.839C309.554 219.984 311.114 233.75 310.846 253.16C310.521 276.58 310.265 295.075 304.455 311.617C297.023 332.775 280.619 351.032 255.698 365.879C238.875 375.902 218.516 384.201 195.186 390.545Z" fill="white"/>
</g>
<g style="mix-blend-mode:soft-light" opacity="0.5">
<path d="M310.346 239.802L309.638 239.408C309.516 239.339 297.267 232.422 285.768 218.025C275.154 204.737 263 182.168 265.372 150.104L266.803 150.21C264.466 181.81 276.436 204.043 286.889 217.13C296.649 229.349 306.912 236.072 309.64 237.741C323.531 204.145 344.272 184.241 359.281 173.438C375.686 161.631 389.011 157.831 389.144 157.794L389.53 159.175C389.399 159.212 376.272 162.963 360.064 174.642C345.113 185.416 324.403 205.336 310.652 239.052L310.346 239.802Z" fill="white"/>
</g>
<g style="mix-blend-mode:soft-light" opacity="0.5">
<path d="M307.967 291.953L307.716 291.496C307.609 291.3 296.789 271.705 282.096 254.185C267.504 236.785 230.213 227.589 229.838 227.498L230.176 226.104C231.726 226.48 268.304 235.505 283.197 253.264C296.726 269.397 306.989 287.274 308.718 290.346C349.561 281.926 400.946 193.351 401.462 192.453L402.706 193.168C402.576 193.394 389.469 216.082 371.428 239.444C347.139 270.898 325.959 288.532 308.48 291.855L307.967 291.953Z" fill="white"/>
</g>
<g style="mix-blend-mode:soft-light" opacity="0.5">
<path d="M261.925 361.808L262.756 360.644C274.602 344.053 274.928 325.444 263.725 305.333C255.333 290.269 243.281 280.004 243.16 279.902L244.086 278.806C244.209 278.91 256.461 289.345 264.979 304.635C276.048 324.504 275.96 343.715 264.751 360.288C269.65 360.053 286.683 358.9 308.3 353.655C331.912 347.926 365.982 336.004 394.202 311.739L449.062 264.567L449.998 265.655L395.138 312.826C366.691 337.287 332.377 349.293 308.602 355.058C282.848 361.302 263.547 361.774 263.355 361.778L261.925 361.808Z" fill="white"/>
</g>
<path d="M263.135 395.141C290.983 398.479 326.935 398.761 362.704 387.227C371.832 384.283 428.223 366.1 424.651 340.969C423.392 332.117 415.756 329.879 413.867 318.073C411.628 304.084 420.916 298.272 428.736 282.036C433.402 272.349 447.057 243.998 431.209 225.655C421.739 214.694 402.162 207.802 386.458 209.642C363.425 212.341 353.239 233.296 336.618 269.049C321.885 300.743 323.798 309.148 312.789 331.785C304.62 348.586 290.239 371.364 263.135 395.141Z" fill="#FFC5A4"/>
<g style="mix-blend-mode:soft-light" opacity="0.5">
<path d="M259.151 396.248C250.095 399.106 240.797 401.133 231.372 402.304C202.347 405.923 172.522 401.853 142.727 390.208L143.249 388.873C172.82 400.429 202.409 404.47 231.194 400.881C334.191 388.042 383.473 278.372 396.123 245.065C403.297 226.177 404.775 204.53 400.515 180.726L401.928 180.474C406.234 204.537 404.733 226.44 397.465 245.574C387.047 273.004 367.924 312.751 335.986 346.334C312.779 370.735 287.026 387.449 259.151 396.248Z" fill="white"/>
</g>
<g style="mix-blend-mode:soft-light" opacity="0.5">
<path d="M370.951 299.222L370.605 298.678C370.335 298.256 343.838 255.977 359.966 214.482L361.304 215.001C346.426 253.277 368.451 292.291 371.479 297.357C434.74 265.664 439.117 221.792 438.945 209.071C438.94 208.718 438.943 208.497 438.952 208.417L440.378 208.577C440.374 208.651 440.377 208.811 440.38 209.051C440.555 222.024 436.107 266.847 371.529 298.935L370.951 299.222Z" fill="white"/>
</g>
<g style="mix-blend-mode:soft-light" opacity="0.5">
<path d="M403.407 346.619C388.369 351.366 365.977 353.945 335.812 345.972L335.442 345.874L335.317 345.511C335.194 345.153 323.126 309.153 331.884 263.06L340.708 216.619L342.119 216.887L333.294 263.327C325.079 306.566 335.326 340.818 336.557 344.685C371.926 353.949 396.392 348.553 410.706 342.38C426.218 335.69 433.415 326.718 433.486 326.628L434.614 327.516C434.315 327.895 427.117 336.864 411.275 343.697C408.703 344.803 406.077 345.779 403.407 346.619Z" fill="white"/>
</g>
</svg>
